<svg version="1.1" id="Layer_1" xmlns="http://www.w3.org/2000/svg" xmlns:xlink="http://www.w3.org/1999/xlink" x="0px" y="0px"
	 width="100%" viewBox="0 0 560 272" enable-background="new 0 0 560 272" xml:space="preserve">
<path fill="#000000" opacity="1.000000" stroke="none" 
	d="
M247.857635,149.731323 
	C245.095337,139.488235 245.333160,129.474289 247.304886,119.647720 
	C249.019348,111.103378 257.356995,105.168114 266.418213,104.799423 
	C276.026703,104.408463 284.733765,109.955322 287.745209,118.285400 
	C289.080994,121.980316 288.709290,124.821526 285.198975,127.376343 
	C278.470795,132.273193 272.006989,137.536621 265.495667,142.725983 
	C263.451355,144.355286 261.167725,145.794678 259.826538,148.136688 
	C264.822784,154.225876 274.221954,153.277191 276.840851,146.124863 
	C278.530975,141.509094 282.329071,140.565964 285.894684,139.201004 
	C288.876007,138.059738 289.044037,140.537323 288.904388,142.703247 
	C288.303406,152.023361 282.580200,159.249847 273.834808,161.746643 
	C264.698608,164.354996 255.185883,161.137955 249.913315,153.600784 
	C249.155243,152.517120 248.619934,151.277634 247.857635,149.731323 
M259.765503,133.781967 
	C265.535706,129.697891 271.135620,125.410240 276.273529,120.471298 
	C274.434326,117.218948 272.142517,115.448227 268.616943,115.265602 
	C259.259247,114.780884 254.588455,123.864441 259.765503,133.781967 
z"/>
<path fill="#000000" opacity="1.000000" stroke="none" 
	d="
M197.271606,104.828033 
	C211.561523,104.769798 219.087692,111.218224 220.705063,124.995316 
	C221.518967,131.928360 221.575302,138.948990 220.296204,145.866760 
	C218.365189,156.310211 209.628189,163.036865 198.727280,162.641037 
	C187.820663,162.244980 180.040497,155.333435 178.625519,144.819427 
	C177.711395,138.027161 177.677902,131.210342 178.422760,124.424629 
	C179.698929,112.798744 185.212265,107.058807 197.271606,104.828033 
M199.445663,115.279846 
	C194.858643,115.099487 191.251266,117.259895 190.450134,121.539864 
	C188.925034,129.687592 188.535431,138.062866 190.500656,146.210938 
	C191.671005,151.063248 195.849915,152.117645 200.358627,151.904190 
	C204.842041,151.691940 208.064728,149.799194 208.790680,145.056900 
	C209.876556,137.963196 209.959045,130.832870 209.077805,123.706955 
	C208.436310,118.519646 205.445633,115.729576 199.445663,115.279846 
z"/>
<path fill="#000000" opacity="1.000000" stroke="none" 
	d="
M445.940521,156.976196 
	C438.296844,163.600235 429.954834,164.166748 421.465118,160.341827 
	C413.379120,156.698807 409.910706,149.700073 409.777405,140.999634 
	C409.698334,135.841156 409.614288,130.675903 409.782593,125.521866 
	C410.180176,113.348358 419.361359,104.617538 431.426392,104.770210 
	C443.832794,104.927200 452.193604,113.414986 452.309540,126.019135 
	C452.356995,131.178406 452.253571,136.339523 452.337311,141.497879 
	C452.434143,147.462296 450.707520,152.638153 445.940521,156.976196 
M438.672028,149.107178 
	C440.399750,146.904602 440.885559,144.341583 440.878601,141.622284 
	C440.864960,136.311508 440.962830,130.998734 440.848694,125.690346 
	C440.702087,118.872070 437.502655,115.400269 431.499786,115.287460 
	C425.224121,115.169533 421.669189,118.646942 421.386475,125.580009 
	C421.177002,130.716690 421.195862,135.872101 421.348755,141.012161 
	C421.652557,151.228027 429.337189,155.154922 438.672028,149.107178 
z"/>
<path fill="#000000" opacity="1.000000" stroke="none" 
	d="
M121.388947,134.947418 
	C121.394684,137.593628 121.304756,139.763992 121.426971,141.922333 
	C121.749756,147.622818 124.311859,150.945740 128.870590,151.748123 
	C134.870407,152.804138 138.602280,150.684998 140.955902,144.969269 
	C142.916351,140.208344 147.526093,140.115952 151.371048,138.581955 
	C154.755692,146.473221 149.050919,157.486801 140.213531,160.982620 
	C126.273865,166.496765 112.602005,158.934998 110.358200,144.122086 
	C109.287491,137.053558 109.480598,129.858353 110.438782,122.729637 
	C111.567688,114.330788 116.184082,108.457329 124.113609,105.913338 
	C133.059998,103.043121 141.661636,104.579788 147.745560,112.088692 
	C154.700226,120.672279 155.212784,125.407112 142.596344,128.754837 
	C140.573944,127.673759 141.147644,125.629601 140.909714,123.912201 
	C140.143646,118.382339 137.045090,115.433044 131.762436,115.283119 
	C126.187691,115.124901 122.448692,117.937309 121.687073,123.499344 
	C121.193893,127.100952 121.462646,130.806900 121.388947,134.947418 
z"/>
<path fill="#000000" opacity="1.000000" stroke="none" 
	d="
M502.084686,114.546234 
	C491.127075,116.408028 489.362518,118.503693 489.367065,129.432037 
	C489.370178,136.928238 489.369049,144.424438 489.357483,151.920624 
	C489.345337,159.818802 487.370483,161.911407 478.886169,163.005280 
	C477.352692,161.543213 477.869415,159.606659 477.860199,157.849457 
	C477.806091,147.521606 477.769623,137.192993 477.834991,126.865334 
	C477.933319,111.326042 490.690277,101.655365 506.209473,105.514847 
	C506.298035,109.020538 504.303528,111.656380 502.084686,114.546234 
z"/>
<path fill="#000000" opacity="1.000000" stroke="none" 
	d="
M329.136169,105.675308 
	C333.768158,104.554855 337.998169,104.340942 342.234406,105.285858 
	C342.124237,111.704185 339.884369,114.472267 334.366943,115.278191 
	C329.048645,116.055031 326.201691,119.107513 326.099823,124.728569 
	C325.940094,133.539124 326.031219,142.354141 326.002869,151.167236 
	C325.975281,159.751877 324.212555,161.690140 314.615112,163.184067 
	C314.615112,158.517868 314.614105,153.927765 314.615326,149.337662 
	C314.617340,141.688400 314.588745,134.038956 314.631500,126.389923 
	C314.689545,116.006668 319.095215,109.604668 329.136169,105.675308 
z"/>
<path fill="#000000" opacity="1.000000" stroke="none" 
	d="
M362.020172,145.997009 
	C362.118042,138.505692 362.245239,131.513901 362.299133,124.521553 
	C362.396881,111.839615 374.568634,101.860283 389.586273,105.405937 
	C389.739502,111.850708 387.698120,114.399811 381.652893,115.312553 
	C376.465363,116.095795 373.487701,119.794434 373.390778,126.081924 
	C373.259857,134.576324 373.348755,143.074097 373.344269,151.570419 
	C373.339935,159.823898 372.116425,161.222565 362.711609,163.192490 
	C361.293182,157.667038 362.357239,152.028275 362.020172,145.997009 
z"/>
</svg>